<mxfile host="app.diagrams.net" modified="2023-05-14T05:10:47.678Z" agent="Mozilla/5.0 (Windows NT 10.0; Win64; x64) AppleWebKit/537.36 (KHTML, like Gecko) Chrome/115.0.0.0 Safari/537.36 Edg/115.0.0.0" version="21.2.9" etag="hmWxDno0b81ZcMyLIoCT" type="github">
  <diagram name="第 1 页" id="JfzD30u5LTsUaP7bKADS">
    <mxGraphModel>
      <root>
        <mxCell id="0" />
        <mxCell id="1" parent="0" />
      </root>
    </mxGraphModel>
  </diagram>
</mxfile>
